<svg width="11" height="13" viewBox="0 0 11 13" fill="none" xmlns="http://www.w3.org/2000/svg">
<path d="M6.70883 7.79067C6.72683 7.58734 6.74516 7.40267 6.74516 7.23634C6.74516 6.38667 6.3625 6.09134 5.74316 6.09134C5.37916 6.09134 4.92383 6.33134 4.59583 6.57134L4.1225 9.84067C4.37437 9.89016 4.63047 9.91495 4.88716 9.91467C5.9985 9.91467 6.49016 9.17567 6.70883 7.79067ZM5.50683 0.333336C5.46883 0.571003 5.4325 0.797669 5.3975 1.01267C5.10016 2.855 4.92383 3.86434 4.86883 4.041L4.9235 4.05967C5.6885 3.54234 6.4535 3.26534 7.32783 3.26534C9.1855 3.26534 10.3332 4.26267 10.3332 6.479C10.3335 10.1547 8.1295 12.6667 4.2315 12.6667C3.08383 12.6667 1.80883 12.6113 0.333496 12.371L1.95516 1.237L2.02016 0.789336L5.50716 0.333336H5.50683Z" fill="white"/>
</svg>
