<svg width="20" height="20" viewBox="0 0 20 20" fill="none" xmlns="http://www.w3.org/2000/svg">
<path d="M20 10C20 4.47715 15.5228 0 10 0C4.47715 0 0 4.47715 0 10C0 15.5228 4.47715 20 10 20C15.5228 20 20 15.5228 20 10Z" fill="#9686E7"/>
<path d="M11.7088 10.7907C11.7268 10.5873 11.7452 10.4027 11.7452 10.2363C11.7452 9.38666 11.3625 9.09133 10.7432 9.09133C10.3792 9.09133 9.92383 9.33133 9.59583 9.57133L9.1225 12.8407C9.37437 12.8902 9.63047 12.9149 9.88716 12.9147C10.9985 12.9147 11.4902 12.1757 11.7088 10.7907ZM10.5068 3.33333C10.4688 3.571 10.4325 3.79767 10.3975 4.01267C10.1002 5.855 9.92383 6.86433 9.86883 7.041L9.9235 7.05967C10.6885 6.54233 11.4535 6.26533 12.3278 6.26533C14.1855 6.26533 15.3332 7.26267 15.3332 9.479C15.3335 13.1547 13.1295 15.6667 9.2315 15.6667C8.08383 15.6667 6.80883 15.6113 5.3335 15.371L6.95516 4.237L7.02016 3.78933L10.5072 3.33333H10.5068Z" fill="white"/>
</svg>
