<svg width="8" height="8" viewBox="0 0 8 8" fill="none" xmlns="http://www.w3.org/2000/svg">
<path d="M7.98794 3.0383C7.95559 2.93353 7.87487 2.86288 7.63274 2.8392L5.42329 2.62426C5.29209 2.61149 5.22009 2.55659 5.168 2.42982L4.29038 0.292775C4.19421 0.0585364 4.10532 0 4.00007 0C3.89491 0 3.80593 0.0585364 3.70967 0.292962L2.83206 2.43001C2.77997 2.55677 2.70796 2.61168 2.57667 2.62444L0.367313 2.8393C0.125265 2.86297 0.0444642 2.93363 0.0120193 3.03839C-0.0205144 3.14326 0.00508586 3.25008 0.187933 3.41851L1.8548 4.95406C1.95382 5.04532 1.98129 5.13415 1.9524 5.26893L1.46439 7.53871C1.41097 7.78758 1.45017 7.88993 1.53524 7.95461C1.62031 8.0194 1.72511 8.02685 1.93427 7.89664L3.84229 6.70876C3.95562 6.6381 4.04451 6.6381 4.15785 6.70876L6.0657 7.89664C6.27494 8.02676 6.37974 8.0193 6.46481 7.95452C6.54988 7.88974 6.5889 7.78749 6.53566 7.53861L6.04765 5.26884C6.01876 5.13405 6.04623 5.04532 6.14525 4.95388L7.81212 3.41842C7.99488 3.24998 8.02057 3.14316 7.98794 3.0383Z" fill="white"/>
</svg>
