<svg width="13" height="12" viewBox="0 0 13 12" fill="none" xmlns="http://www.w3.org/2000/svg">
<path d="M12.9804 4.55745C12.9278 4.4003 12.7967 4.29432 12.4032 4.2588L8.81284 3.93639C8.59964 3.91723 8.48264 3.83488 8.39799 3.64473L6.97188 0.439163C6.81558 0.0878046 6.67114 0 6.50011 0C6.32923 0 6.18464 0.0878046 6.02821 0.439443L4.60209 3.64501C4.51744 3.83516 4.40044 3.91751 4.1871 3.93667L0.596883 4.25894C0.203556 4.29446 0.0722543 4.40044 0.0195314 4.55759C-0.033336 4.71488 0.00826452 4.87511 0.305391 5.12776L3.01405 7.4311C3.17496 7.56798 3.21959 7.70122 3.17265 7.9034L2.37964 11.3081C2.29283 11.6814 2.35653 11.8349 2.49476 11.9319C2.633 12.0291 2.8033 12.0403 3.14318 11.845L6.24372 10.0631C6.42789 9.95716 6.57234 9.95716 6.75651 10.0631L9.85676 11.845C10.1968 12.0401 10.3671 12.029 10.5053 11.9318C10.6436 11.8346 10.707 11.6812 10.6204 11.3079L9.82743 7.90326C9.78049 7.70108 9.82512 7.56798 9.98604 7.43082L12.6947 5.12762C12.9917 4.87497 13.0334 4.71475 12.9804 4.55745Z" fill="white"/>
</svg>
