<svg width="22" height="22" viewBox="0 0 22 22" fill="none" xmlns="http://www.w3.org/2000/svg">
<path d="M11 5.24547C7.82703 5.24547 5.24583 7.82666 5.24583 11C5.24583 14.173 7.82703 16.7542 11 16.7542C14.173 16.7542 16.7545 14.173 16.7545 11C16.7545 7.82703 14.173 5.24547 11 5.24547ZM11 14.6432C8.99118 14.6432 7.35675 13.0088 7.35675 11C7.35675 8.99118 8.99118 7.35675 11 7.35675C13.0088 7.35675 14.6432 8.99118 14.6432 11C14.6432 13.0088 13.0088 14.6432 11 14.6432ZM10.0704 3.23262V0.929567C10.0704 0.416841 10.4873 0 11 0C11.5127 0 11.9296 0.416841 11.9296 0.929567V3.23262C11.9296 3.74535 11.5127 4.16256 11 4.16256C10.4873 4.16256 10.0704 3.74535 10.0704 3.23262ZM11.9296 18.7674V21.0704C11.9296 21.5832 11.5127 22 11 22C10.4873 22 10.0704 21.5832 10.0704 21.0704V18.7674C10.0704 18.2546 10.4873 17.8378 11 17.8378C11.5127 17.8374 11.9296 18.2546 11.9296 18.7674ZM22 11C22 11.5127 21.5832 11.9296 21.0704 11.9296H18.7674C18.2546 11.9296 17.8378 11.5127 17.8378 11C17.8378 10.4873 18.2546 10.0701 18.7674 10.0701H21.0704C21.5832 10.0704 22 10.4873 22 11ZM3.23299 11.9296H0.929933C0.417207 11.9296 0 11.5127 0 11C0 10.4873 0.417207 10.0701 0.929933 10.0701H3.23299C3.74572 10.0701 4.16256 10.4873 4.16256 11C4.16256 11.5127 3.74572 11.9296 3.23299 11.9296ZM18.778 17.4634C18.9533 17.6387 19.0499 17.8722 19.0499 18.1207C19.0499 18.3696 18.9533 18.6031 18.778 18.7784C18.6031 18.9533 18.3696 19.0499 18.1207 19.0499C17.8718 19.0499 17.6384 18.9533 17.4631 18.778L15.8348 17.1498C15.4722 16.7871 15.4722 16.1975 15.8348 15.8348C16.1975 15.4722 16.7871 15.4722 17.1494 15.8348L18.778 17.4634ZM3.22201 4.53658C2.85933 4.1739 2.85933 3.58432 3.22201 3.22201C3.58432 2.8597 4.17427 2.85933 4.53695 3.22201L6.16515 4.85022C6.52783 5.21289 6.52783 5.80248 6.16515 6.16515C5.984 6.34631 5.74612 6.43707 5.50787 6.43707C5.26962 6.43707 5.03174 6.34631 4.85058 6.16515L3.22201 4.53658ZM6.16515 15.8348C6.52783 16.1975 6.52783 16.7871 6.16515 17.1498L4.53695 18.778C4.35579 18.9591 4.11754 19.0499 3.87966 19.0499C3.64141 19.0499 3.40353 18.9591 3.22201 18.778C3.04671 18.6031 2.95009 18.3696 2.95009 18.1207C2.95009 17.8722 3.04671 17.6387 3.22201 17.4634L4.85058 15.8348C5.21289 15.4722 5.80248 15.4722 6.16515 15.8348ZM15.8348 6.16515C15.4722 5.80248 15.4722 5.21289 15.8348 4.85022L17.4634 3.22201C17.6384 3.04671 17.8718 2.95009 18.1207 2.95009C18.3692 2.95009 18.6027 3.04671 18.778 3.22201C19.1407 3.58469 19.1407 4.17427 18.778 4.53658L17.1494 6.16515C16.9683 6.34631 16.7304 6.43707 16.4921 6.43707C16.2543 6.43707 16.0164 6.34631 15.8348 6.16515Z" fill="white"/>
</svg>
