<svg width="18" height="18" viewBox="0 0 18 18" fill="none" xmlns="http://www.w3.org/2000/svg">
<path d="M11.8132 6.78092C11.8132 6.93304 11.8086 7.08055 11.7946 7.23267C11.79 7.29721 11.7807 7.36174 11.7761 7.42167C11.7714 7.4816 11.7343 7.58301 11.7853 7.36635C11.7761 7.40784 11.7714 7.44933 11.7668 7.49082C11.7203 7.77662 11.6506 8.06243 11.5578 8.33901C11.516 8.46808 11.4649 8.58794 11.4184 8.71701C11.3766 8.83225 11.4927 8.55567 11.4416 8.6663C11.4277 8.69396 11.4184 8.72162 11.4045 8.74928C11.372 8.82303 11.3348 8.89679 11.2977 8.97055C11.1676 9.22408 11.019 9.4684 10.8564 9.69889C10.8332 9.73116 10.7821 9.83257 10.7496 9.8464C10.8053 9.82335 10.8611 9.71272 10.7821 9.80491C10.7635 9.82796 10.7449 9.85101 10.7264 9.87406C10.6288 9.9893 10.5266 10.1045 10.4198 10.2106C10.3269 10.3028 10.234 10.395 10.1365 10.4825C10.0854 10.5286 10.0297 10.5747 9.97393 10.6208C9.9507 10.6393 9.92748 10.6577 9.90426 10.6808C9.89032 10.6946 9.87174 10.7084 9.85781 10.7176C9.80207 10.7591 9.8253 10.7453 9.92748 10.6669C9.89961 10.7407 9.66738 10.8513 9.60235 10.8928C9.48159 10.9712 9.36083 11.0449 9.23543 11.1141C9.11002 11.1832 8.97997 11.2478 8.84992 11.3077C8.82205 11.3215 8.79418 11.3307 8.76632 11.3446C8.6502 11.3999 8.78954 11.3676 8.81741 11.3215C8.79418 11.3584 8.65484 11.3861 8.61304 11.3999C8.33901 11.5013 8.05568 11.5797 7.77236 11.635C7.69804 11.6488 7.62837 11.6626 7.55406 11.6765C7.52155 11.6811 7.48904 11.6857 7.46117 11.6903C7.33112 11.7133 7.64695 11.6719 7.5169 11.6811C7.36827 11.6949 7.215 11.7087 7.06637 11.7133C6.75982 11.7272 6.46257 11.7041 6.15602 11.6811C6.04919 11.6719 6.24427 11.6949 6.24427 11.6949C6.20246 11.6857 6.16066 11.6811 6.11886 11.6765C6.05848 11.6673 5.99345 11.6534 5.93307 11.6442C5.7798 11.6119 5.62653 11.5797 5.47325 11.5336C5.3432 11.4967 5.21315 11.4552 5.08775 11.4091C5.01808 11.3861 4.95305 11.3538 4.88338 11.3307C4.7812 11.2939 4.96699 11.363 4.96234 11.363C4.93447 11.3676 4.85087 11.3123 4.823 11.2985C4.5629 11.1786 4.31209 11.0403 4.07521 10.8836C4.00554 10.8375 3.77795 10.7361 3.75009 10.6577C3.75473 10.6669 3.92658 10.8006 3.79189 10.69C3.76867 10.6715 3.74544 10.6531 3.72222 10.6347C3.66184 10.584 3.59681 10.5286 3.53643 10.4779C3.33207 10.2935 3.14164 10.0999 2.96514 9.8925C2.94656 9.86945 2.79793 9.68045 2.88618 9.79569C2.97443 9.91555 2.83509 9.72194 2.81187 9.69428C2.72826 9.57903 2.6493 9.45918 2.57963 9.33933C2.50532 9.21947 2.43565 9.09501 2.37062 8.96594C2.34276 8.91062 2.31489 8.8553 2.29166 8.79999C2.27309 8.76311 2.25915 8.72623 2.24057 8.68935C2.18019 8.56489 2.24057 8.72623 2.2638 8.74006C2.19877 8.70318 2.13839 8.40355 2.11517 8.3344C2.06872 8.19611 2.03156 8.05782 1.99441 7.91491C1.95725 7.77201 1.92938 7.62911 1.90616 7.48621C1.90151 7.45394 1.89687 7.42167 1.89222 7.39401C1.87365 7.28799 1.90616 7.4816 1.90616 7.4816C1.9108 7.39862 1.88758 7.30643 1.88293 7.22806C1.85971 6.92843 1.85971 6.62418 1.88293 6.32455C1.88758 6.25079 1.89687 6.17704 1.90616 6.10328C1.91545 5.99726 1.89222 6.19548 1.89222 6.19087C1.88758 6.16782 1.9108 6.08023 1.9108 6.0664C1.93403 5.9235 1.96189 5.7806 1.99905 5.6377C2.03156 5.50862 2.06872 5.37494 2.11052 5.25048C2.13375 5.17211 2.19877 4.85865 2.26844 4.81716C2.27309 4.81716 2.18948 4.99233 2.23593 4.89553C2.25451 4.85865 2.26844 4.82177 2.28702 4.78489C2.31489 4.72958 2.33811 4.67426 2.36598 4.61894C2.43565 4.48065 2.50996 4.35158 2.58892 4.21789C2.65859 4.10726 2.72826 3.99663 2.80722 3.88599C2.83509 3.8445 2.89083 3.72926 2.93263 3.71543C2.93727 3.71543 2.81187 3.86294 2.88154 3.78458C2.91405 3.7477 2.94656 3.70621 2.97907 3.66933C3.16021 3.45267 3.35993 3.24985 3.57359 3.06085C3.62004 3.01936 3.66648 2.98248 3.71293 2.94099C3.74544 2.91333 3.91729 2.77965 3.81047 2.86263C3.69435 2.95021 3.88943 2.80731 3.91265 2.78887C3.97767 2.74277 4.04734 2.69668 4.11701 2.65519C4.34925 2.50768 4.59077 2.37399 4.84158 2.25875C4.87874 2.24031 4.91589 2.22648 4.95305 2.20804C5.04595 2.16194 4.86945 2.24492 4.87409 2.24031C4.89267 2.20804 5.04595 2.17577 5.07846 2.16194C5.21315 2.11124 5.35249 2.06975 5.49183 2.02826C5.63117 1.98677 5.77516 1.95451 5.91914 1.92685C5.97952 1.91302 6.04455 1.9038 6.10493 1.88997C6.14673 1.88075 6.18853 1.87614 6.23033 1.87153C6.35574 1.84848 6.04455 1.88997 6.1746 1.88075C6.4765 1.85309 6.7784 1.83465 7.08495 1.84848C7.22429 1.85309 7.36363 1.86692 7.50297 1.88075C7.67018 1.89458 7.31718 1.84848 7.54013 1.88536C7.62373 1.89919 7.70733 1.91302 7.79094 1.93146C8.07891 1.99138 8.35759 2.06975 8.63162 2.16655C8.66878 2.18038 8.81741 2.21265 8.83599 2.24492C8.83599 2.24953 8.65949 2.16655 8.75703 2.21265C8.78489 2.22648 8.81276 2.2357 8.84063 2.24953C8.97997 2.31407 9.11931 2.38321 9.254 2.45697C9.37012 2.5215 9.48159 2.59065 9.59306 2.6598C9.65344 2.69668 9.71382 2.73816 9.76956 2.77965C9.80207 2.8027 10.0111 2.95021 9.89497 2.86724C9.78349 2.78426 9.94141 2.90411 9.96928 2.92716C10.025 2.97326 10.0761 3.01936 10.1318 3.06546C10.2433 3.16687 10.3548 3.27289 10.4616 3.37892C10.5545 3.47111 10.6428 3.57253 10.7264 3.66933C10.7496 3.69699 10.8936 3.88138 10.8053 3.76614C10.7217 3.6555 10.8564 3.83528 10.8796 3.86755C11.0468 4.09804 11.1908 4.34236 11.3209 4.59589C11.3534 4.66043 11.3859 4.72497 11.4138 4.7895C11.4277 4.81716 11.437 4.84482 11.4509 4.87248C11.5252 5.02921 11.437 4.82638 11.4277 4.82177C11.502 4.86326 11.5485 5.14445 11.5763 5.22743C11.6646 5.50401 11.7343 5.78982 11.7853 6.07562C11.79 6.11711 11.7946 6.1586 11.8039 6.20009C11.8039 6.20009 11.7807 6.00648 11.79 6.1125C11.7946 6.18626 11.8039 6.26001 11.8132 6.33377C11.8039 6.48128 11.8132 6.6334 11.8132 6.78092C11.8179 7.26494 12.2405 7.72591 12.7421 7.70287C13.2438 7.67982 13.6757 7.29721 13.6711 6.78092C13.6571 3.91826 11.8271 1.38751 9.13789 0.39641C6.52295 -0.567028 3.3878 0.271946 1.61354 2.41087C0.689258 3.53104 0.141189 4.85404 0.0204276 6.29689C-0.0910442 7.6706 0.257305 9.09501 0.977227 10.2751C1.66928 11.4137 2.71897 12.3772 3.94052 12.9257C5.29676 13.5342 6.76911 13.7094 8.23218 13.4236C10.9168 12.8981 13.1509 10.6162 13.5689 7.92413C13.6293 7.54613 13.6664 7.16813 13.6711 6.78552C13.6757 6.3015 13.2438 5.84053 12.7421 5.86357C12.2359 5.88201 11.8132 6.26462 11.8132 6.78092Z" fill="white"/>
<path d="M10.2941 11.6534C10.9816 12.3357 11.669 13.0179 12.3564 13.7002C13.4572 14.7927 14.5626 15.8898 15.6634 16.9823C15.9142 17.2312 16.1696 17.4848 16.4204 17.7337C16.7642 18.0748 17.3958 18.1025 17.7349 17.7337C18.0739 17.3649 18.1018 16.7933 17.7349 16.4291C17.0475 15.7469 16.3601 15.0646 15.6727 14.3824C14.5719 13.2899 13.4664 12.1928 12.3657 11.1003C12.1149 10.8513 11.8594 10.5978 11.6086 10.3489C11.2649 10.0077 10.6332 9.98008 10.2941 10.3489C9.95509 10.7176 9.92722 11.2893 10.2941 11.6534Z" fill="white"/>
</svg>
